<svg xmlns="http://www.w3.org/2000/svg" version="1.1" xmlns:xlink="http://www.w3.org/1999/xlink" xmlns:svgjs="http://svgjs.com/svgjs" width="512" height="512" x="0" y="0" viewBox="0 0 511 511" style="enable-background:new 0 0 512 512" xml:space="preserve" class=""><g><linearGradient id="a" x1="255.5" x2="255.5" y1="91.092" y2="369.092" gradientUnits="userSpaceOnUse"><stop offset="0" stop-color="#96d1f3"></stop><stop offset="1" stop-color="#ccfff4"></stop></linearGradient><linearGradient id="b" x1="255.5" x2="255.5" y1="72.03" y2="438.97" gradientUnits="userSpaceOnUse"><stop offset="0" stop-color="#174fa3"></stop><stop offset="1" stop-color="#b044af"></stop></linearGradient><path fill="url(#a)" d="m185.5 369.092-45-25-36 25-27-29-70 14v-4l102-137 106 16h80l106-16 102 137v4l-70-14-27 29-36-25-45 25zm140-170 24-24v-84l-54 58h-80l-54-58v84l24 24z" data-original="url(#a)" class=""></path><path fill="#ffffff" d="m325.5 199.092-30-50h-80l-30 50 30 30-30 140 70 60 70-60-30-140z" data-original="#ffffff" class=""></path><path fill="url(#b)" d="m404.829 205.005-87.904 13.268L357 178.198V72.03l-64.765 69.562h-73.47L154 72.03v106.168l40.075 40.074-87.904-13.268L0 347.607v15.634l74.864-14.973 28.575 30.692 37.501-26.043 40.253 22.362L255.5 438.97l74.307-63.691 40.253-22.362 37.501 26.043 28.575-30.692L511 363.24v-15.634zm-40.865 134.138-33.252 18.474-26.207-122.299 87.142-13.154zm-244.61-116.979 87.142 13.154-26.207 122.299-33.252-18.474zm100.393-65.572h71.507l24.803 41.337-60.557 60.557-60.556-60.556zM342 171.986l-15.011 15.011-22.154-36.924L342 110.154zm-173 0v-61.832l37.165 39.918-22.154 36.924zm-75.974 75.792-21.641 85.889-49.707 9.941zm-7.256 90.19 23.502-93.273 22.754 96.152-26.464 18.378zm169.73 81.246-61.732-52.913 26.177-122.158 35.555 35.555 35.555-35.555 26.177 122.158zm149.939-59.99-26.464-18.378 22.754-96.152 23.502 93.273zm34.176-25.557-21.641-85.889 71.348 95.83z" data-original="url(#b)" class=""></path></g></svg>