<svg width="409" height="368" viewBox="0 0 409 368" fill="none" xmlns="http://www.w3.org/2000/svg">
<g filter="url(#filter0_d_4600_5)">
<rect x="14" y="25" width="380" height="287" fill="#FAE9E0"/>
<rect x="14.5" y="25.5" width="379" height="286" stroke="black"/>
</g>
<path opacity="0.75" d="M29.2031 116.453C28.4375 116.453 27.7266 116.426 27.0703 116.371C26.4141 116.316 25.776 116.225 25.1562 116.098C24.5182 115.97 23.8802 115.824 23.2422 115.66C22.5859 115.478 21.8841 115.259 21.1367 115.004C20.6263 114.84 20.0065 114.585 19.2773 114.238C18.5482 113.874 17.8646 113.445 17.2266 112.953C16.5703 112.443 16.0143 111.878 15.5586 111.258C15.1029 110.62 14.875 109.954 14.875 109.262L14.875 106.992C14.875 106.974 14.8932 106.919 14.9297 106.828C14.9479 106.719 14.9661 106.637 14.9844 106.582C15.3307 105.871 15.7591 105.315 16.2695 104.914C16.7617 104.513 17.3997 104.24 18.1836 104.094C18.931 103.93 19.651 103.757 20.3437 103.574C21.0182 103.374 21.7292 103.273 22.4766 103.273C23.3698 103.273 24.2539 103.301 25.1289 103.355C26.0039 103.392 26.888 103.41 27.7812 103.41C27.8359 103.41 27.9362 103.41 28.082 103.41C28.2096 103.41 28.3555 103.41 28.5195 103.41C28.6836 103.392 28.8385 103.383 28.9844 103.383C29.1302 103.383 29.2214 103.383 29.2578 103.383C29.4036 103.365 29.6133 103.346 29.8867 103.328C30.1602 103.31 30.4609 103.273 30.7891 103.219C31.1172 103.164 31.4544 103.109 31.8008 103.055C32.1471 103 32.4661 102.936 32.7578 102.863C33.0312 102.772 33.2591 102.672 33.4414 102.562C33.6237 102.453 33.7148 102.326 33.7148 102.18C33.7148 101.687 33.651 101.177 33.5234 100.648C33.3958 100.102 33.1953 99.6094 32.9219 99.1719C32.8854 99.1354 32.8216 99.0534 32.7305 98.9258C32.6211 98.7799 32.5117 98.6341 32.4023 98.4883C32.2747 98.3242 32.1654 98.1784 32.0742 98.0508C31.9648 97.9049 31.8828 97.7956 31.8281 97.7227C31.737 97.5951 31.6732 97.4948 31.6367 97.4219C31.582 97.3307 31.5547 97.2214 31.5547 97.0937C31.5547 96.9844 31.5911 96.8841 31.6641 96.793C31.7187 96.7018 31.8099 96.6562 31.9375 96.6562C32.3568 96.6562 32.7487 96.8932 33.1133 97.3672C33.4779 97.8229 33.806 98.3607 34.0977 98.9805C34.3893 99.6003 34.6263 100.229 34.8086 100.867C34.9727 101.487 35.0547 101.952 35.0547 102.262C35.0547 102.663 34.8542 103.009 34.4531 103.301C34.0339 103.574 33.5508 103.82 33.0039 104.039C32.4388 104.24 31.8646 104.422 31.2812 104.586C30.6797 104.732 30.1875 104.878 29.8047 105.023C30.5339 105.279 31.2174 105.661 31.8555 106.172C32.4753 106.664 33.0221 107.229 33.4961 107.867C33.9701 108.505 34.3437 109.198 34.6172 109.945C34.8906 110.693 35.0273 111.449 35.0273 112.215C35.0273 113.053 34.8633 113.755 34.5352 114.32C34.1888 114.867 33.7513 115.305 33.2227 115.633C32.6758 115.943 32.056 116.161 31.3633 116.289C30.6523 116.398 29.9323 116.453 29.2031 116.453ZM28.9844 114.758C29.5312 114.758 30.0872 114.749 30.6523 114.73C31.1992 114.694 31.7005 114.594 32.1562 114.43C32.612 114.247 32.9857 113.974 33.2773 113.609C33.5508 113.227 33.6875 112.689 33.6875 111.996C33.6875 111.085 33.487 110.273 33.0859 109.562C32.6667 108.852 32.1289 108.232 31.4727 107.703C30.7982 107.174 30.0326 106.728 29.1758 106.363C28.3008 105.999 27.4167 105.707 26.5234 105.488C25.612 105.27 24.7279 105.115 23.8711 105.023C23.0143 104.914 22.2487 104.859 21.5742 104.859C21.5742 105.333 21.3555 105.57 20.918 105.57C20.6445 105.57 20.4076 105.516 20.207 105.406C19.9883 105.297 19.7148 105.242 19.3867 105.242C18.9857 105.242 18.5937 105.315 18.2109 105.461C17.8281 105.589 17.4818 105.789 17.1719 106.062C16.862 106.318 16.625 106.628 16.4609 106.992C16.2786 107.339 16.1875 107.721 16.1875 108.141C16.1875 108.997 16.4245 109.754 16.8984 110.41C17.3542 111.048 17.9557 111.613 18.7031 112.105C19.4505 112.598 20.2982 113.017 21.2461 113.363C22.1758 113.691 23.1237 113.965 24.0898 114.184C25.0378 114.384 25.9492 114.53 26.8242 114.621C27.681 114.712 28.401 114.758 28.9844 114.758ZM31.2539 94.5781C31.2539 94.5964 31.2812 94.6237 31.3359 94.6602C31.3724 94.6784 31.3997 94.7057 31.418 94.7422C31.8008 94.9609 32.1745 95.1341 32.5391 95.2617C32.9036 95.3893 33.3229 95.5169 33.7969 95.6445C33.9792 95.7721 34.0977 95.9089 34.1523 96.0547C34.1888 96.1823 34.207 96.3372 34.207 96.5195C34.207 96.9388 34.0247 97.1484 33.6602 97.1484C32.8581 96.9479 32.2109 96.7747 31.7187 96.6289C31.2083 96.4831 30.7799 96.3555 30.4336 96.2461C30.069 96.1367 29.75 96.0456 29.4766 95.9727C29.2031 95.8815 28.9297 95.7904 28.6562 95.6992C28.3646 95.6081 28.0273 95.5169 27.6445 95.4258C27.2617 95.3164 26.7878 95.1979 26.2227 95.0703C25.6393 94.9245 24.9284 94.7604 24.0898 94.5781C23.2513 94.3958 22.2214 94.1771 21 93.9219L18.7031 92.9922C18.5391 92.9193 18.4388 92.8372 18.4023 92.7461C18.3477 92.6367 18.3203 92.5182 18.3203 92.3906C18.3203 92.2266 18.375 92.0716 18.4844 91.9258C18.5755 91.7799 18.7122 91.6888 18.8945 91.6523C18.931 91.6523 19.0039 91.6523 19.1133 91.6523C19.2227 91.6523 19.3411 91.6523 19.4687 91.6523C19.5781 91.6341 19.6875 91.625 19.7969 91.625C19.888 91.625 19.9609 91.625 20.0156 91.625C20.9818 91.625 21.8112 91.707 22.5039 91.8711C23.1966 92.0169 23.8437 92.2266 24.4453 92.5C25.0469 92.7552 25.6484 93.0469 26.25 93.375C26.8516 93.6849 27.5443 93.9948 28.3281 94.3047C27.763 93.8125 27.2799 93.2474 26.8789 92.6094C26.4779 91.9714 26.2773 91.2695 26.2773 90.5039C26.2773 90.431 26.2865 90.2943 26.3047 90.0937C26.3229 89.875 26.332 89.7292 26.332 89.6562C26.4414 89.2734 26.651 88.9453 26.9609 88.6719C27.2708 88.3802 27.6263 88.1523 28.0273 87.9883C28.4102 87.8242 28.8203 87.7057 29.2578 87.6328C29.6771 87.5599 30.0599 87.5234 30.4062 87.5234C30.7708 87.5234 31.1628 87.5599 31.582 87.6328C31.9831 87.7057 32.3659 87.7969 32.7305 87.9062L32.7305 87.6328L31.6914 83.668C31.582 83.3034 31.3906 82.9388 31.1172 82.5742C30.8437 82.1914 30.5885 81.8815 30.3516 81.6445L30.3516 81.5898C30.3516 81.5716 30.3516 81.5625 30.3516 81.5625C30.3333 81.5443 30.3242 81.526 30.3242 81.5078C30.3242 81.3437 30.3789 81.2161 30.4883 81.125C30.5794 81.0156 30.707 80.9609 30.8711 80.9609C31.1992 80.9609 31.5 81.0977 31.7734 81.3711C32.0469 81.6263 32.2839 81.9362 32.4844 82.3008C32.6667 82.6654 32.8307 83.0391 32.9766 83.4219C33.1042 83.8047 33.1953 84.1055 33.25 84.3242C33.3047 84.5065 33.3958 84.8255 33.5234 85.2812C33.6328 85.7187 33.7513 86.1927 33.8789 86.7031C34.0065 87.2135 34.125 87.7057 34.2344 88.1797C34.3437 88.6354 34.4167 88.9453 34.4531 89.1094C34.599 89.3828 34.7357 89.638 34.8633 89.875C34.9727 90.112 35.0273 90.3763 35.0273 90.668C35.0273 91.0872 34.9271 91.5521 34.7266 92.0625C34.5078 92.5547 34.2344 93.0104 33.9062 93.4297C33.5599 93.8307 33.1589 94.1589 32.7031 94.4141C32.2474 94.651 31.7643 94.7057 31.2539 94.5781ZM30.8437 93.9219C30.8437 93.6484 30.9622 93.4297 31.1992 93.2656C31.418 93.0833 31.6641 92.8828 31.9375 92.6641C32.2109 92.4453 32.457 92.1719 32.6758 91.8437C32.8945 91.4974 33.0039 91.0052 33.0039 90.3672L33.0039 89.793C32.8398 89.6289 32.6302 89.5013 32.375 89.4102C32.1198 89.3008 31.8646 89.2279 31.6094 89.1914C31.3359 89.1367 31.0625 89.1094 30.7891 89.1094C30.5156 89.1094 30.2604 89.1094 30.0234 89.1094C29.7682 89.1094 29.5039 89.1367 29.2305 89.1914C28.9388 89.2461 28.6745 89.3372 28.4375 89.4648C28.2005 89.5924 28.0091 89.7747 27.8633 90.0117C27.7174 90.2305 27.6445 90.4948 27.6445 90.8047C27.6445 91.1693 27.763 91.5521 28 91.9531C28.2187 92.3359 28.5013 92.6914 28.8477 93.0195C29.194 93.3477 29.5586 93.6393 29.9414 93.8945C30.3242 94.1497 30.6706 94.332 30.9805 94.4414C30.9076 94.3503 30.8711 94.2682 30.8711 94.1953C30.8529 94.1042 30.8437 94.013 30.8437 93.9219ZM32.8672 82.6289C32.849 82.6289 32.7852 82.6198 32.6758 82.6016C32.5664 82.5833 32.457 82.5651 32.3477 82.5469C32.2201 82.5286 32.1107 82.5104 32.0195 82.4922C31.9102 82.474 31.8372 82.4648 31.8008 82.4648L31.6914 82.4648L31.5273 82.4648L29.8047 82.082C29.1484 81.7721 28.5195 81.4531 27.918 81.125C27.3164 80.7786 26.7878 80.3867 26.332 79.9492C25.8763 79.5117 25.5117 79.0104 25.2383 78.4453C24.9648 77.862 24.8281 77.1602 24.8281 76.3398C24.8281 76.1758 24.8828 75.9753 24.9922 75.7383C25.0833 75.4831 25.2018 75.237 25.3477 75C25.4935 74.7448 25.6484 74.5169 25.8125 74.3164C25.9583 74.0977 26.0951 73.9336 26.2227 73.8242C26.1315 73.2591 26.0859 72.849 26.0859 72.5937C26.0677 72.3385 26.0586 72.1198 26.0586 71.9375C26.0404 71.7552 26.0039 71.5638 25.9492 71.3633C25.8945 71.1445 25.776 70.8164 25.5937 70.3789C25.5026 70.069 25.457 69.7682 25.457 69.4766C25.457 69.349 25.5117 69.2305 25.6211 69.1211C25.7305 68.9935 25.8581 68.9297 26.0039 68.9297C26.1862 68.9297 26.3503 68.9935 26.4961 69.1211C26.6419 69.2487 26.7331 69.4036 26.7695 69.5859L27.5352 73.0039L27.6719 73.3047C28.6562 73.3229 29.5951 73.5417 30.4883 73.9609C31.3815 74.3802 32.1654 74.9362 32.8398 75.6289C33.5143 76.3216 34.0521 77.1237 34.4531 78.0352C34.8359 78.9466 35.0273 79.8945 35.0273 80.8789C35.0273 80.9518 35.0182 81.0703 35 81.2344C35 81.3984 35 81.5078 35 81.5625C34.8359 81.9635 34.5352 82.2461 34.0977 82.4102C33.6602 82.556 33.25 82.6289 32.8672 82.6289ZM33.4141 80.8789C33.5052 80.8607 33.5508 80.7878 33.5508 80.6602C33.5508 80.5326 33.5508 80.4414 33.5508 80.3867C33.5508 79.7305 33.3867 79.056 33.0586 78.3633C32.7122 77.6706 32.2747 77.0508 31.7461 76.5039C31.1992 75.9388 30.5885 75.4831 29.9141 75.1367C29.2214 74.7721 28.5286 74.5898 27.8359 74.5898C27.8359 75.1732 27.7904 75.7565 27.6992 76.3398C27.5898 76.9232 27.5352 77.4883 27.5352 78.0352L27.5352 78.0625L29.9414 80.332C30.069 80.4596 30.2422 80.5599 30.4609 80.6328C30.6797 80.7057 30.9167 80.7604 31.1719 80.7969C31.4271 80.8333 31.6823 80.8607 31.9375 80.8789C32.1927 80.8971 32.4206 80.9062 32.6211 80.9062C32.6758 80.9062 32.8034 80.9062 33.0039 80.9062C33.2044 80.9062 33.3411 80.8971 33.4141 80.8789ZM32.0469 69.6953C31.7917 69.6224 31.5273 69.5768 31.2539 69.5586C30.9805 69.5221 30.6888 69.4857 30.3789 69.4492C30.069 69.3945 29.7227 69.3125 29.3398 69.2031C28.9388 69.0755 28.4922 68.8841 28 68.6289C27.5078 68.3737 26.9427 68.0365 26.3047 67.6172C25.6484 67.1797 24.901 66.6146 24.0625 65.9219C23.9531 65.849 23.862 65.7578 23.7891 65.6484C23.6979 65.5391 23.6523 65.4206 23.6523 65.293C23.6523 65.0742 23.7435 64.8828 23.9258 64.7187C24.0898 64.5547 24.2721 64.4727 24.4727 64.4727C24.4909 64.4727 24.5547 64.4909 24.6641 64.5273C24.7552 64.5456 24.819 64.5638 24.8555 64.582C25.2747 64.7826 25.6484 64.974 25.9766 65.1562C26.3047 65.3385 26.6237 65.5299 26.9336 65.7305C27.2253 65.931 27.5352 66.1589 27.8633 66.4141C28.1914 66.651 28.5651 66.9336 28.9844 67.2617C29.5312 67.4805 30.0417 67.6719 30.5156 67.8359C30.9896 68 31.5182 68.082 32.1016 68.082C32.3932 68.082 32.6302 68.0729 32.8125 68.0547C32.9948 68.0182 33.2409 67.9271 33.5508 67.7812L33.5508 67.4805C33.5508 66.9518 33.3411 66.3503 32.9219 65.6758C32.4844 64.9831 31.974 64.3086 31.3906 63.6523C30.7891 62.9779 30.1784 62.3672 29.5586 61.8203C28.9388 61.2734 28.4375 60.8724 28.0547 60.6172C28.0182 60.5807 27.9362 60.5352 27.8086 60.4805C27.6628 60.4076 27.5716 60.362 27.5352 60.3437C27.4258 60.3073 27.2435 60.2435 26.9883 60.1523C26.7148 60.0612 26.4323 59.9701 26.1406 59.8789C25.849 59.7695 25.5755 59.6693 25.3203 59.5781C25.0469 59.487 24.8555 59.4232 24.7461 59.3867C24.582 59.3503 24.4909 59.2773 24.4727 59.168C24.4544 59.0586 24.4453 58.9492 24.4453 58.8398C24.4453 58.5117 24.5182 58.3021 24.6641 58.2109C24.7917 58.1198 25.0104 58.0742 25.3203 58.0742L25.7852 58.0742C26.2773 58.2565 26.7331 58.4206 27.1523 58.5664C27.5716 58.694 27.9818 58.8216 28.3828 58.9492C28.7839 59.0586 29.1849 59.1406 29.5859 59.1953C29.987 59.25 30.4245 59.2773 30.8984 59.2773C30.9531 59.2773 31.0807 59.2865 31.2812 59.3047C31.4818 59.3047 31.6914 59.2956 31.9102 59.2773C32.1107 59.2409 32.3021 59.1862 32.4844 59.1133C32.6484 59.0221 32.7305 58.8945 32.7305 58.7305C32.7305 58.293 32.6758 57.8464 32.5664 57.3906C32.4388 56.9167 32.2839 56.4427 32.1016 55.9687C31.901 55.4948 31.6823 55.0482 31.4453 54.6289C31.2083 54.1914 30.9714 53.7812 30.7344 53.3984C30.6979 53.3073 30.6159 53.1979 30.4883 53.0703C30.3607 52.9427 30.2422 52.806 30.1328 52.6602C30.0052 52.5143 29.8958 52.3685 29.8047 52.2227C29.7135 52.0768 29.668 51.9401 29.668 51.8125C29.668 51.4479 29.8503 51.2656 30.2148 51.2656C30.4883 51.2656 30.7799 51.4297 31.0898 51.7578C31.3815 52.0859 31.6732 52.5052 31.9648 53.0156C32.2565 53.5078 32.5299 54.0638 32.7852 54.6836C33.0404 55.3034 33.2682 55.9049 33.4687 56.4883C33.651 57.0534 33.806 57.5638 33.9336 58.0195C34.043 58.4753 34.0977 58.8034 34.0977 59.0039C34.0977 59.0768 34.0977 59.2135 34.0977 59.4141C34.0794 59.5964 34.0703 59.724 34.0703 59.7969C33.9974 60.0885 33.8333 60.3164 33.5781 60.4805C33.3229 60.6445 33.0404 60.7721 32.7305 60.8633C32.4023 60.9362 32.0833 60.9818 31.7734 61C31.4453 61.0182 31.181 61.0273 30.9805 61.0273C31.0169 61.082 31.0625 61.1549 31.1172 61.2461C31.1536 61.319 31.1992 61.3646 31.2539 61.3828C31.3815 61.5286 31.582 61.7747 31.8555 62.1211C32.1107 62.4492 32.3932 62.8138 32.7031 63.2148C32.9948 63.5977 33.2682 63.9622 33.5234 64.3086C33.7786 64.6367 33.9609 64.8646 34.0703 64.9922C34.3437 65.3568 34.5716 65.7578 34.7539 66.1953C34.9362 66.6328 35.0273 67.0794 35.0273 67.5352C35.0273 68.0091 34.9544 68.3828 34.8086 68.6562C34.6445 68.9297 34.4349 69.1484 34.1797 69.3125C33.9062 69.4583 33.5872 69.5586 33.2227 69.6133C32.8581 69.668 32.4661 69.6953 32.0469 69.6953ZM27.6719 51.4844C27.599 51.4479 27.4896 51.375 27.3437 51.2656C27.1797 51.1562 27.043 51.1016 26.9336 51.1016L26.8516 51.1016C26.8333 51.1016 26.8151 51.1198 26.7969 51.1562C26.7604 51.1927 26.7422 51.2201 26.7422 51.2383L26.7422 51.7305C26.888 52.2044 26.9883 52.7331 27.043 53.3164C27.0977 53.918 27.1159 54.4922 27.0977 55.0391C27.0794 55.6042 27.0339 56.0872 26.9609 56.4883C26.8698 56.8893 26.7695 57.1263 26.6602 57.1992C26.5508 57.2721 26.4232 57.1354 26.2773 56.7891C26.1133 56.4427 25.9492 55.7865 25.7852 54.8203C25.7852 54.7656 25.7669 54.638 25.7305 54.4375C25.6758 54.2552 25.6302 54.0456 25.5937 53.8086C25.5573 53.5898 25.5208 53.3802 25.4844 53.1797C25.4297 52.9792 25.4023 52.8516 25.4023 52.7969C25.3841 52.724 25.375 52.569 25.375 52.332C25.3568 52.0951 25.3385 51.8581 25.3203 51.6211C25.3021 51.3659 25.293 51.1289 25.293 50.9102C25.293 50.6732 25.293 50.5091 25.293 50.418L25.1289 50.2812L21.5469 48.1484C21.4193 48.0755 21.319 47.9479 21.2461 47.7656C21.1732 47.5651 21.1367 47.4102 21.1367 47.3008C21.1367 47.0638 21.237 46.8997 21.4375 46.8086C21.6198 46.7174 21.8021 46.6719 21.9844 46.6719C22.0026 46.6719 22.0208 46.681 22.0391 46.6992C22.0573 46.6992 22.0755 46.6992 22.0937 46.6992L22.2031 46.6992L25.1289 47.9023L25.293 47.9023C25.1836 47.8659 25.1289 47.8021 25.1289 47.7109C25.1289 47.6016 25.1289 47.5195 25.1289 47.4648C25.1289 47.1914 25.22 46.9271 25.4023 46.6719C25.5846 46.4167 25.8307 46.2891 26.1406 46.2891C26.2865 46.2891 26.4049 46.3346 26.4961 46.4258C26.5872 46.5169 26.6602 46.6263 26.7148 46.7539C26.7695 46.8815 26.8151 47.0182 26.8516 47.1641C26.8698 47.3099 26.8789 47.4375 26.8789 47.5469C26.8789 47.7656 26.8516 47.9753 26.7969 48.1758C26.7422 48.3581 26.7148 48.5586 26.7148 48.7773C26.7148 48.9779 26.8242 49.1602 27.043 49.3242C27.2435 49.4883 27.5169 49.6432 27.8633 49.7891C28.1914 49.9167 28.5651 50.026 28.9844 50.1172C29.4036 50.2083 29.8138 50.2904 30.2148 50.3633C30.6159 50.4362 30.9896 50.4909 31.3359 50.5273C31.6823 50.5456 31.9466 50.5547 32.1289 50.5547C32.2018 50.5547 32.3477 50.5547 32.5664 50.5547C32.7852 50.5365 32.931 50.5273 33.0039 50.5273C33.1133 50.5091 33.2135 50.4635 33.3047 50.3906C33.3776 50.3177 33.4596 50.2448 33.5508 50.1719L33.5508 49.543C33.5508 48.8138 33.3867 48.0937 33.0586 47.3828C32.7305 46.6536 32.3568 45.9701 31.9375 45.332C31.9193 45.2956 31.8372 45.2135 31.6914 45.0859C31.5273 44.9401 31.3724 44.7852 31.2266 44.6211C31.0625 44.457 30.9167 44.3112 30.7891 44.1836C30.6615 44.0378 30.5977 43.9375 30.5977 43.8828C30.5977 43.7552 30.6615 43.6367 30.7891 43.5273C30.9167 43.418 31.0534 43.3633 31.1992 43.3633C31.5456 43.3633 31.8828 43.4909 32.2109 43.7461C32.5391 43.9831 32.849 44.293 33.1406 44.6758C33.4141 45.0586 33.6693 45.4961 33.9062 45.9883C34.1432 46.4805 34.3437 46.9727 34.5078 47.4648C34.6719 47.9388 34.7995 48.3945 34.8906 48.832C34.9818 49.2513 35.0273 49.5977 35.0273 49.8711C35.0273 50.1263 35 50.3906 34.9453 50.6641C34.8724 50.9375 34.763 51.1836 34.6172 51.4023C34.4714 51.6211 34.2891 51.8034 34.0703 51.9492C33.8516 52.0951 33.5781 52.168 33.25 52.168L30.2148 52.168L27.6719 51.4844ZM32.0469 31.8789C31.7917 31.806 31.5273 31.7604 31.2539 31.7422C30.9805 31.7057 30.6888 31.6693 30.3789 31.6328C30.069 31.5781 29.7227 31.4961 29.3398 31.3867C28.9388 31.2591 28.4922 31.0677 28 30.8125C27.5078 30.5573 26.9427 30.2201 26.3047 29.8008C25.6484 29.3633 24.901 28.7982 24.0625 28.1055C23.9531 28.0326 23.862 27.9414 23.7891 27.832C23.6979 27.7227 23.6523 27.6042 23.6523 27.4766C23.6523 27.2578 23.7435 27.0664 23.9258 26.9023C24.0898 26.7383 24.2721 26.6562 24.4727 26.6562C24.4909 26.6562 24.5547 26.6745 24.6641 26.7109C24.7552 26.7292 24.819 26.7474 24.8555 26.7656C25.2747 26.9661 25.6484 27.1576 25.9766 27.3398C26.3047 27.5221 26.6237 27.7135 26.9336 27.9141C27.2253 28.1146 27.5352 28.3424 27.8633 28.5977C28.1914 28.8346 28.5651 29.1172 28.9844 29.4453C29.5312 29.6641 30.0417 29.8555 30.5156 30.0195C30.9896 30.1836 31.5182 30.2656 32.1016 30.2656C32.3932 30.2656 32.6302 30.2565 32.8125 30.2383C32.9948 30.2018 33.2409 30.1107 33.5508 29.9648L33.5508 29.6641C33.5508 29.1354 33.3411 28.5339 32.9219 27.8594C32.4844 27.1667 31.974 26.4922 31.3906 25.8359C30.7891 25.1615 30.1784 24.5508 29.5586 24.0039C28.9388 23.457 28.4375 23.056 28.0547 22.8008C28.0182 22.7643 27.9362 22.7187 27.8086 22.6641C27.6628 22.5911 27.5716 22.5456 27.5352 22.5273C27.4258 22.4909 27.2435 22.4271 26.9883 22.3359C26.7148 22.2448 26.4323 22.1536 26.1406 22.0625C25.849 21.9531 25.5755 21.8529 25.3203 21.7617C25.0469 21.6706 24.8555 21.6068 24.7461 21.5703C24.582 21.5339 24.4909 21.4609 24.4727 21.3516C24.4544 21.2422 24.4453 21.1328 24.4453 21.0234C24.4453 20.6953 24.5182 20.4857 24.6641 20.3945C24.7917 20.3034 25.0104 20.2578 25.3203 20.2578L25.7852 20.2578C26.2773 20.4401 26.7331 20.6042 27.1523 20.75C27.5716 20.8776 27.9818 21.0052 28.3828 21.1328C28.7838 21.2422 29.1849 21.3242 29.5859 21.3789C29.987 21.4336 30.4245 21.4609 30.8984 21.4609C30.9531 21.4609 31.0807 21.4701 31.2812 21.4883C31.4818 21.4883 31.6914 21.4792 31.9102 21.4609C32.1107 21.4245 32.3021 21.3698 32.4844 21.2969C32.6484 21.2057 32.7305 21.0781 32.7305 20.9141C32.7305 20.4766 32.6758 20.0299 32.5664 19.5742C32.4388 19.1003 32.2838 18.6263 32.1016 18.1523C31.901 17.6784 31.6823 17.2318 31.4453 16.8125C31.2083 16.375 30.9713 15.9648 30.7344 15.582C30.6979 15.4909 30.6159 15.3815 30.4883 15.2539C30.3607 15.1263 30.2422 14.9896 30.1328 14.8437C30.0052 14.6979 29.8958 14.5521 29.8047 14.4062C29.7135 14.2604 29.668 14.1237 29.668 13.9961C29.668 13.6315 29.8503 13.4492 30.2148 13.4492C30.4883 13.4492 30.7799 13.6133 31.0898 13.9414C31.3815 14.2695 31.6732 14.6888 31.9648 15.1992C32.2565 15.6914 32.5299 16.2474 32.7852 16.8672C33.0404 17.487 33.2682 18.0885 33.4687 18.6719C33.651 19.237 33.806 19.7474 33.9336 20.2031C34.043 20.6589 34.0977 20.987 34.0977 21.1875C34.0977 21.2604 34.0977 21.3971 34.0977 21.5977C34.0794 21.7799 34.0703 21.9076 34.0703 21.9805C33.9974 22.2721 33.8333 22.5 33.5781 22.6641C33.3229 22.8281 33.0404 22.9557 32.7305 23.0469C32.4023 23.1198 32.0833 23.1654 31.7734 23.1836C31.4453 23.2018 31.181 23.2109 30.9805 23.2109C31.0169 23.2656 31.0625 23.3385 31.1172 23.4297C31.1536 23.5026 31.1992 23.5482 31.2539 23.5664C31.3815 23.7122 31.582 23.9583 31.8555 24.3047C32.1107 24.6328 32.3932 24.9974 32.7031 25.3984C32.9948 25.7812 33.2682 26.1458 33.5234 26.4922C33.7786 26.8203 33.9609 27.0482 34.0703 27.1758C34.3437 27.5404 34.5716 27.9414 34.7539 28.3789C34.9362 28.8164 35.0273 29.263 35.0273 29.7187C35.0273 30.1927 34.9544 30.5664 34.8086 30.8398C34.6445 31.1133 34.4349 31.332 34.1797 31.4961C33.9062 31.6419 33.5872 31.7422 33.2227 31.7969C32.8581 31.8516 32.4661 31.8789 32.0469 31.8789ZM31.1445 12.957C31.2174 13.1029 31.263 13.2578 31.2812 13.4219C31.2812 13.5859 31.2812 13.75 31.2812 13.9141C31.2812 14.0781 31.2904 14.2422 31.3086 14.4062C31.3086 14.5703 31.345 14.7344 31.418 14.8984C31.4544 15.2083 31.4362 15.4089 31.3633 15.5C31.2721 15.5911 31.1536 15.6185 31.0078 15.582C30.862 15.5456 30.6979 15.4453 30.5156 15.2812C30.3333 15.1172 30.1784 14.9258 30.0508 14.707C29.9232 14.5065 29.832 14.2878 29.7773 14.0508C29.7227 13.7956 29.7318 13.5677 29.8047 13.3672C29.4766 13.4583 29.194 13.4492 28.957 13.3398C28.72 13.2305 28.6016 13.0117 28.6016 12.6836C28.6016 12.5195 28.6198 12.3737 28.6562 12.2461C28.6745 12.1003 28.7474 11.9909 28.875 11.918C28.7109 11.6445 28.4375 11.2799 28.0547 10.8242C27.6536 10.3685 27.2526 9.90364 26.8516 9.42969C26.4323 8.9375 26.0677 8.49088 25.7578 8.08984C25.4297 7.6888 25.2656 7.41536 25.2656 7.26953C25.2656 7.21484 25.2747 7.14193 25.293 7.05078C25.293 6.95963 25.3112 6.86849 25.3477 6.77734C25.3841 6.66797 25.4297 6.58594 25.4844 6.53125C25.5208 6.45833 25.5846 6.42187 25.6758 6.42187L26.8516 6.42187C27.362 6.54948 27.845 6.67708 28.3008 6.80469C28.7383 6.91406 29.1758 7.01432 29.6133 7.10547C30.0325 7.17838 30.4609 7.23307 30.8984 7.26953C31.3359 7.30599 31.8008 7.32422 32.293 7.32422C32.293 7.03255 32.2292 6.6862 32.1016 6.28515C31.974 5.86588 31.819 5.44661 31.6367 5.02734C31.4544 4.60807 31.2721 4.21614 31.0898 3.85156C30.8893 3.48698 30.7253 3.19531 30.5977 2.97656C30.5794 2.9401 30.5156 2.85807 30.4062 2.73047C30.2969 2.60286 30.1875 2.46614 30.0781 2.32031C29.9505 2.17448 29.8411 2.03776 29.75 1.91015C29.6406 1.76432 29.5677 1.67318 29.5312 1.63672C29.4948 1.60026 29.4492 1.50911 29.3945 1.36328C29.3216 1.21745 29.276 1.13542 29.2578 1.11719C29.2396 1.04427 29.2669 0.980467 29.3398 0.92578C29.3945 0.852863 29.4674 0.789061 29.5586 0.734374C29.6315 0.679686 29.7135 0.643228 29.8047 0.624999C29.8776 0.58854 29.9232 0.570311 29.9414 0.570311C30.1237 0.570311 30.306 0.643228 30.4883 0.789061C30.6706 0.934894 30.8437 1.10807 31.0078 1.30859C31.1536 1.50911 31.2995 1.71875 31.4453 1.9375C31.5729 2.13802 31.6914 2.29297 31.8008 2.40234C31.8737 2.54818 31.9922 2.80338 32.1562 3.16797C32.3203 3.51432 32.4935 3.88802 32.6758 4.28906C32.8581 4.6901 33.0312 5.07292 33.1953 5.4375C33.3594 5.78385 33.4779 6.02995 33.5508 6.17578C33.569 6.21224 33.5963 6.29427 33.6328 6.42187C33.651 6.54948 33.6875 6.6862 33.7422 6.83203C33.7969 6.97786 33.8424 7.1237 33.8789 7.26953C33.8971 7.39713 33.9154 7.47917 33.9336 7.51562C33.9883 7.67969 34.0794 7.80729 34.207 7.89844C34.3346 7.97135 34.4622 8.05338 34.5898 8.14453C34.7174 8.21745 34.8268 8.31771 34.918 8.44531C35.0091 8.55469 35.0365 8.73698 35 8.99219C34.9818 9.01042 34.9453 9.09245 34.8906 9.23828C34.8177 9.36588 34.763 9.44792 34.7266 9.48437C34.4167 9.92187 34.125 10.2956 33.8516 10.6055C33.5781 10.9154 33.3138 11.1979 33.0586 11.4531C32.7852 11.7083 32.4935 11.9544 32.1836 12.1914C31.8737 12.4102 31.5273 12.6654 31.1445 12.957ZM30.0508 11.2344C30.3242 11.1068 30.5885 10.9883 30.8437 10.8789C31.099 10.7513 31.345 10.6055 31.582 10.4414C31.8008 10.2773 31.9922 10.0951 32.1562 9.89453C32.3203 9.67578 32.4206 9.41146 32.457 9.10156C32.1836 9.0651 31.8555 9.01953 31.4727 8.96484C31.0898 8.91015 30.6888 8.84635 30.2695 8.77344C29.8503 8.70052 29.4401 8.61849 29.0391 8.52734C28.6198 8.41797 28.2552 8.29948 27.9453 8.17187L27.9453 8.44531C28.1458 8.73698 28.3463 9.01042 28.5469 9.26562C28.7292 9.5026 28.9115 9.73958 29.0937 9.97656C29.2578 10.2135 29.4036 10.4049 29.5312 10.5508C29.5495 10.569 29.5768 10.5964 29.6133 10.6328C29.6497 10.6693 29.668 10.6966 29.668 10.7148C29.7044 10.7331 29.7682 10.8151 29.8594 10.9609C29.9505 11.1068 30.0143 11.1979 30.0508 11.2344ZM27.5352 8.17187C27.5352 8.22656 27.5807 8.25391 27.6719 8.25391C27.7448 8.25391 27.7812 8.22656 27.7812 8.17187C27.7812 8.09896 27.7448 8.0625 27.6719 8.0625C27.5807 8.0625 27.5352 8.09896 27.5352 8.17187Z" fill="black"/>
<path d="M295.835 303.785C238.235 343.785 172.502 319.452 146.835 302.285H146.335C146.002 301.618 145.235 299.885 144.835 298.285C144.564 297.199 142.129 294.825 139.81 292.785M295.835 303.785C273.335 318.285 212.535 337.985 149.335 300.785M295.835 303.785C240.235 341.385 175.002 321.785 149.335 307.285V300.785M295.835 303.785L295.335 303.285M149.335 300.785L145.835 297.785L141.835 293.285L139.81 292.785M335.335 297.285L329.835 301.285C327.835 296.085 305.669 300.118 294.835 302.785L295.335 303.285M335.335 297.285C340.669 298.118 350.035 301.485 344.835 308.285C338.502 313.285 318.735 324.185 290.335 327.785C265.169 332.118 203.935 338.185 160.335 327.785C121.335 320.785 61.4355 303.685 133.835 291.285L136.835 290.285M335.335 297.285C325.735 294.485 314.002 289.118 309.335 286.785M136.835 290.285C137.639 290.928 138.711 291.819 139.81 292.785M136.835 290.285L128.579 278.785M122.835 270.785C77.5021 275.118 2.83543 293.785 66.8354 333.785C103.669 354.118 210.835 385.685 344.835 349.285C395.669 331.118 462.535 289.885 323.335 270.285M122.835 270.785C92.8354 220.385 91.6688 160.785 94.8354 137.285M122.835 270.785L128.579 278.785M323.335 270.285L335.835 242.785M323.335 270.285L316.335 278.535M295.335 303.285L309.335 286.785M309.335 286.785L316.335 278.535M329.835 297.785L310.335 289.785L302.835 298.785L318.835 295.785L320.835 296.785H322.335L311.335 292.785L309.335 293.785L307.835 295.785L311.335 295.285M335.835 242.785C365.002 239.618 419.435 222.585 403.835 179.785C399.502 169.952 383.635 152.985 354.835 163.785M335.835 242.785C337.365 240.155 338.82 236.93 340.196 233.285M354.835 163.785C354.497 166.776 354.046 170.338 353.486 174.285M354.835 163.785L353.486 174.285M340.196 233.285C340.755 231.802 341.302 230.249 341.835 228.638M340.196 233.285C341.447 233.062 342.961 232.763 344.607 232.401M341.835 228.638L364.835 225.285C365.169 223.785 365.235 221.685 362.835 225.285C360.894 228.197 351.566 230.868 344.607 232.401M341.835 228.638C342.197 227.546 342.552 226.427 342.901 225.285M342.901 225.285L344.607 232.401M342.901 225.285C347.027 211.792 350.268 195.103 352.439 181.285M342.901 225.285C351.185 224.999 364.208 222.585 373.835 216.077M352.439 181.285C378.123 175.685 385.738 187.285 386.335 193.785C386.335 199.797 384.519 204.742 381.568 208.785M352.439 181.285C352.822 178.852 353.171 176.507 353.486 174.285M353.486 174.285C358.769 173.285 369.635 171.585 370.835 172.785M353.486 174.285V137.285M381.568 208.785C384.574 211.952 387.463 217.685 374.962 215.285M381.568 208.785C380.741 209.918 379.825 210.98 378.835 211.975M374.962 215.285C376.343 214.275 377.643 213.174 378.835 211.975M374.962 215.285C374.592 215.555 374.216 215.819 373.835 216.077M378.835 211.975C381.169 214.106 383.435 217.91 373.835 216.077M353.486 137.285C327.207 166.885 254.103 171.285 220.835 169.785C192.169 171.452 126.835 167.285 94.8354 137.285M353.486 137.285C353.989 134.277 353.043 130.601 349.82 126.785M94.8354 137.285C93.603 134.441 94.2688 130.723 98.4112 126.785M104.835 188.285C113.669 225.785 140.135 301.285 175.335 303.285M349.82 126.785C339.47 114.531 305.631 100.845 220.835 103.285C141.263 105.575 108.833 116.877 98.4112 126.785M349.82 126.785C348.346 128.7 346.157 130.913 343.211 133.285M98.4112 126.785C99.5882 128.896 101.067 130.894 102.811 132.785M102.811 132.785C109.652 127.452 126.135 117.285 137.335 119.285M102.811 132.785C109.833 140.403 121.151 146.281 134.335 150.766M186.335 111.785C194.335 110.785 211.735 108.985 217.335 109.785M228.835 109.785C238.835 109.618 259.035 109.785 259.835 111.785M134.335 150.766C162.54 160.36 199.291 163.575 220.835 163.785C262.604 163.785 293.223 157.128 314.335 149.001M134.335 150.766C157.002 141.75 224.735 128.774 314.335 149.001M314.335 149.001C327.551 143.914 337.042 138.251 343.211 133.285M316.335 278.535C330.169 278.618 358.835 280.185 362.835 285.785M128.579 278.785C111.831 279.118 77.4354 281.885 73.8354 290.285M97.3354 316.285C110.335 325.118 145.935 342.385 184.335 340.785M270.335 338.285C287.669 336.285 324.335 330.785 332.335 324.785M306.835 118.285C317.586 120.285 339.912 126.085 343.211 133.285M338.835 165.785C339.002 185.452 332.435 236.385 304.835 282.785M290.335 297.785L298.335 289.285M142.835 297.285L126.335 301.785C125.835 302.452 125.235 303.685 126.835 303.285C128.435 302.885 138.835 300.452 143.835 299.285L142.835 297.285Z" stroke="#AF9283" stroke-width="4"/>
<defs>
<filter id="filter0_d_4600_5" x="10" y="25" width="388" height="295" filterUnits="userSpaceOnUse" color-interpolation-filters="sRGB">
<feFlood flood-opacity="0" result="BackgroundImageFix"/>
<feColorMatrix in="SourceAlpha" type="matrix" values="0 0 0 0 0 0 0 0 0 0 0 0 0 0 0 0 0 0 127 0" result="hardAlpha"/>
<feOffset dy="4"/>
<feGaussianBlur stdDeviation="2"/>
<feComposite in2="hardAlpha" operator="out"/>
<feColorMatrix type="matrix" values="0 0 0 0 0 0 0 0 0 0 0 0 0 0 0 0 0 0 0.25 0"/>
<feBlend mode="normal" in2="BackgroundImageFix" result="effect1_dropShadow_4600_5"/>
<feBlend mode="normal" in="SourceGraphic" in2="effect1_dropShadow_4600_5" result="shape"/>
</filter>
</defs>
</svg>
