<svg width="411" height="324" viewBox="0 0 411 324" fill="none" xmlns="http://www.w3.org/2000/svg">
<rect y="32" width="410" height="276" fill="#E3EBE7"/>
<path d="M91.6087 11.3084C97.1821 7.55052 121.795 0.48575 175.661 2.28952C211.596 1.69777 271.23 2.03783 280.499 6.61111M91.6087 11.3084C86.186 13.7644 80.7633 41.5216 80.7633 40.1688M91.6087 11.3084L97.9352 11.6372M275.529 11.3084L268.298 11.881M275.529 11.3084C281.833 9.39043 283.003 7.84636 280.499 6.61111M275.529 11.3084H282.533M247.059 13.5631C218.138 15.0663 155.235 17.1707 134.99 13.5631M247.059 13.5631C210.908 4.18351 157.284 9.65495 134.99 13.5631M247.059 13.5631L229.888 12.2103C202.021 11.3084 147.191 10.2261 150.807 13.1122C154.422 15.9982 205.485 9.95558 205.485 9.95558M247.059 13.5631L258.809 12.6326M134.99 13.5631L117.367 12.6471M80.7633 40.1688C83.6253 40.6197 89.2589 41.251 88.8974 40.1688M80.7633 40.1688L79.7981 39.9623C76.3699 39.2293 72.7581 39.7808 72.2125 43.2438V43.2438C71.388 48.4771 76.0388 52.972 81.2617 53.8602C82.7582 54.1147 84.249 54.3639 85.7342 54.6079M97.9352 11.6372C94.772 20.6968 88.5359 39.0865 88.8974 40.1688M97.9352 11.6372L111.944 12.3653M88.8974 40.1688C90.861 40.4684 92.8193 40.758 94.772 41.0377M290.441 40.1688L298.575 39.2669M290.441 40.1688C292.249 40.1688 285.922 20.9285 282.533 11.3084M290.441 40.1688C288.675 40.5286 286.714 40.8973 284.566 41.2691M267.846 43.7017C270.892 43.3278 273.758 42.9438 276.432 42.5561M267.846 43.7017C267.244 33.7439 268.118 19.5739 276.432 42.5561M267.846 43.7017C255.402 45.229 239.948 46.5864 222.205 47.3321M276.432 42.5561C279.38 42.1287 282.096 41.6968 284.566 41.2691M270.106 33.4046C269.955 35.0581 269.744 38.7257 270.106 40.1688C270.462 41.5914 272.019 39.0403 272.785 37.5276C272.805 37.4872 272.802 37.4399 272.777 37.4023V37.4023C272.691 37.2736 272.493 37.3835 272.558 37.5243L274.173 41.0706L272.828 38.1617C271.918 36.1958 270.857 34.3038 269.654 32.5027V32.5027M258.809 12.6326L263.328 18.5235M258.809 12.6326L268.298 11.881M263.328 18.5235C261.52 15.7486 261.43 12.6999 268.298 11.881M263.328 18.5235C263.779 19.8763 267.937 11.6176 268.298 11.881M289.537 11.3084L280.499 6.61111M289.537 11.3084C293.152 19.8763 300.021 37.4631 298.575 39.2669M289.537 11.3084H282.533M298.575 39.2669H300.221C302.996 39.2669 304.559 38.6181 306.127 40.9072V40.9072C309.589 45.9584 303.993 53.5878 298.047 55.0518C296.915 55.3304 295.735 55.6091 294.508 55.8867M85.7342 54.6079C87.5417 73.3942 90.705 110.967 88.8974 110.967M85.7342 54.6079C87.0946 54.8314 88.4503 55.0505 89.8012 55.2653M88.8974 110.967C86.9392 110.666 83.0228 111.147 83.0228 115.476L94.992 224.679C95.4208 228.592 97.8217 231.894 101.098 234.074V234.074M88.8974 110.967L85.657 113.841C85.1313 114.307 84.8304 114.977 84.8304 115.679V116.454C84.8304 117.193 85.3594 117.827 86.087 117.959L86.2457 117.988C87.5401 118.223 88.4636 116.764 87.6979 115.694L87.6229 115.59C87.5692 115.515 87.5024 115.45 87.4256 115.399V115.399C86.9086 115.055 86.9989 114.27 87.5804 114.053L89.1872 113.451C89.5698 113.308 89.999 113.37 90.326 113.614L90.5513 113.783C91.0796 114.178 91.0796 114.97 90.5513 115.366V115.366C90.1307 115.681 90.0298 116.269 90.3217 116.706L90.5512 117.05C91.0795 117.841 92.2194 117.902 92.829 117.172L93.6027 116.245C93.7763 116.037 94.0043 115.882 94.2613 115.796V115.796C94.8398 115.604 95.477 115.792 95.8584 116.268L95.9272 116.353C96.5205 117.094 96.3514 118.183 95.5616 118.709L94.4093 119.475C93.5204 120.067 93.0288 121.075 93.1351 122.138C96.6366 157.14 102.877 225.911 101.098 234.074M88.8974 110.967C92.1286 112.253 95.4045 113.454 98.7178 114.574M101.098 234.074L103.439 287.792C103.672 293.149 106.387 298.142 111.04 300.808V300.808M101.098 234.074C104.578 235.504 108.673 236.994 113.3 238.466M279.596 232.27L275.412 286.163C274.914 292.574 271.577 298.489 266.039 301.755V301.755M279.596 232.27V232.27C284.579 230.613 284.917 224.239 285.598 219.031C289.402 189.944 294.965 145.172 296.511 125.101C297.027 118.402 296.205 109.995 289.537 109.163V109.163M279.596 232.27C278.248 232.89 276.896 233.491 275.541 234.074M289.537 109.163L294.508 55.8867M289.537 109.163L288.816 113.24C288.745 113.644 289.319 113.801 289.464 113.418V113.418C289.509 113.297 289.619 113.212 289.747 113.207C291.034 113.162 290.913 114.016 289.537 113.672C288.429 113.396 289.904 112.308 290.789 111.746C291.139 111.524 291.565 111.491 291.958 111.622V111.622C292.426 111.777 292.792 112.144 292.948 112.611L293.152 113.222L293.706 115.707C293.898 116.57 293.343 117.422 292.476 117.595L292.039 117.683C290.98 117.894 290.118 116.83 290.544 115.837L290.86 115.101C290.88 115.055 290.926 115.025 290.976 115.025V115.025C291.128 115.025 291.149 115.245 291 115.274L287.829 115.907C287.764 115.92 287.702 115.948 287.649 115.988L285.922 117.28M294.508 55.8867C292.929 56.244 291.272 56.5996 289.537 56.9515M285.922 117.28C283.911 155.61 279.02 232.631 275.541 234.074M285.922 117.28C284.195 117.727 282.348 118.179 280.388 118.633M275.541 234.074C272.688 235.301 269.82 236.447 266.943 237.516M266.943 237.516L274.625 119.9M266.943 237.516C262.145 239.297 257.319 240.863 252.482 242.232M274.625 119.9C275.081 119.805 275.533 119.709 275.981 119.613M274.625 119.9C273.45 120.145 272.245 120.39 271.01 120.633M259.261 122.736L252.482 242.232M259.261 122.736C254.973 123.432 250.442 124.093 245.704 124.699M259.261 122.736C261.115 122.435 262.923 122.128 264.683 121.815M252.482 242.232C248.72 243.296 244.951 244.241 241.185 245.074M245.704 124.699L241.185 245.074M245.704 124.699C241.632 125.22 237.406 125.7 233.051 126.127M241.185 245.074C237.414 245.908 233.645 246.631 229.888 247.25M233.051 126.127L229.888 247.25M233.051 126.127C228.372 126.585 223.542 126.982 218.59 127.3M229.888 247.25C225.195 248.022 220.52 248.634 215.879 249.099M218.59 127.3L215.879 249.099M218.59 127.3C214.889 127.538 211.119 127.733 207.293 127.877M215.879 249.099C213.002 249.388 210.139 249.62 207.293 249.801M207.293 127.877V249.801M207.293 127.877C201.387 128.1 195.347 128.203 189.217 128.161M207.293 249.801C201.174 250.188 195.136 250.335 189.217 250.277M189.217 128.161V250.277M189.217 128.161C183.854 128.125 178.422 127.978 172.949 127.704M189.217 250.277C184.663 250.233 180.18 250.069 175.787 249.801M172.949 127.704L175.787 249.801M172.949 127.704C169.05 127.509 165.13 127.249 161.2 126.919M175.787 249.801C171.905 249.564 168.093 249.246 164.363 248.859M161.2 126.919L164.363 248.859M161.2 126.919C156.238 126.502 151.26 125.972 146.288 125.318M164.363 248.859C159.385 248.343 154.555 247.705 149.903 246.971M146.288 125.318L149.903 246.971M146.288 125.318C142.515 124.822 138.746 124.253 134.99 123.608M149.903 246.971C146.235 246.393 142.678 245.756 139.246 245.074M134.99 123.608L139.246 245.074M134.99 123.608C130.295 122.802 125.619 121.876 120.982 120.818M139.246 245.074C134.807 244.192 130.578 243.234 126.59 242.232M120.982 120.818L126.59 242.232M120.982 120.818C119.925 120.578 118.871 120.33 117.818 120.076M126.59 242.232C121.791 241.025 117.342 239.752 113.3 238.466M105.165 116.639L113.3 238.466M105.165 116.639C103.922 116.262 102.682 115.875 101.448 115.476M105.165 116.639C106.402 117.014 107.643 117.377 108.888 117.731M93.8682 83.4593L89.8012 55.2653M93.8682 83.4593V55.9012M93.8682 83.4593C92.0606 72.6366 89.9819 52.5246 96.1277 58.6574C100.597 63.1174 100.239 62.4419 98.8418 60.7588C98.3257 60.137 97.3384 60.5975 97.4647 61.3956V61.3956C97.6116 62.3237 99.1902 62.3278 99.43 61.4192C100.084 58.943 100.969 57.214 102.002 58.6574C103.388 60.5933 105.924 61.0628 107.779 61.0411C108.54 61.0321 109.233 61.6124 109.233 62.3734V62.3734C109.233 63.6913 111.033 64.073 111.568 62.8685L113.437 58.6574M89.8012 55.2653C91.1617 55.4816 92.5174 55.6936 93.8682 55.9012M93.8682 55.9012C100.512 56.9223 107.036 57.8387 113.437 58.6574M113.437 58.6574C182.103 67.4398 236.61 64.9843 271.914 59.9574M100.195 23.9348L94.772 41.0377M94.772 41.0377C98.865 41.624 102.933 42.167 106.973 42.6687M110.588 32.9537L106.973 42.6687M106.973 42.6687C123.659 44.7413 139.861 46.1114 155.325 46.9336M114.203 21.2291L111.944 12.3653M114.203 21.2291L117.367 12.6471M114.203 21.2291L114.655 12.5062M111.944 12.3653L114.655 12.5062M117.367 12.6471L114.655 12.5062M155.325 46.9336C155.476 44.8289 156.229 40.3491 158.037 39.2669M155.325 46.9336C178.686 48.1755 200.366 48.1671 219.494 47.4405M158.037 39.2669C159.415 38.4419 159.655 41.5827 159.558 44.4543C159.527 45.363 158.407 45.7036 157.838 44.9941V44.9941C157.676 44.7912 157.597 44.5338 157.619 44.2748L158.037 39.2669ZM219.494 47.4405C219.946 44.5656 221.211 38.9963 222.657 39.7178M219.494 47.4405C220.404 47.406 221.307 47.3698 222.205 47.3321M222.657 39.7178C223.679 40.2277 224.16 42.5697 224.353 44.6423C224.477 45.9637 223.512 47.1012 222.205 47.3321V47.3321M222.657 39.7178L222.205 47.3321M284.566 41.2691L280.499 24.8367M289.537 56.9515C289.537 57.3065 289.535 57.6595 289.53 58.0105C289.46 63.3062 286.382 62.7638 286.826 57.4862V57.4862M289.537 56.9515C288.654 57.1308 287.75 57.3091 286.826 57.4862M289.537 56.9515L286.826 57.4862M286.826 57.4862C285.228 57.7925 283.571 58.0952 281.855 58.3927M281.855 58.3927C281.855 63.1407 281.765 71.8249 281.403 68.5782C281.042 65.3314 279.445 60.7895 278.692 58.9244M281.855 58.3927C280.822 58.5719 279.767 58.7492 278.692 58.9244M278.692 58.9244C276.518 59.2784 274.258 59.6236 271.914 59.9574M271.914 59.9574C271.914 63.4322 271.642 70.1114 270.558 69.0291C269.473 67.9468 269.202 62.8662 269.202 60.4612M275.981 119.613C276.432 112.522 277.607 98.7011 278.692 100.144M275.981 119.613C276.805 119.437 277.613 119.26 278.404 119.084M278.692 100.144C279.776 101.587 280.275 113.071 280.388 118.633M278.692 100.144L278.404 119.084M280.388 118.633C279.739 118.783 279.078 118.933 278.404 119.084M261.52 122.24C261.52 118.182 261.791 110.426 262.876 111.869C263.96 113.312 264.533 119.101 264.683 121.815M264.683 121.815C265.292 121.707 265.894 121.599 266.491 121.49M266.491 121.49C266.792 116.178 267.575 106.097 268.298 108.261M266.491 121.49C267.254 121.35 268.007 121.21 268.75 121.069M268.298 108.261C269.021 110.426 270.407 117.411 271.01 120.633M268.298 108.261L268.75 121.069M271.01 120.633C270.267 120.779 269.514 120.925 268.75 121.069M111.04 300.808C111.793 286.831 113.3 259.598 113.3 262.484C113.3 265.37 113.3 290.079 113.3 302.073M111.04 300.808C111.775 301.229 112.528 301.651 113.3 302.073M113.3 302.073C115.02 303.014 116.829 303.955 118.722 304.887M118.722 304.887C119.325 297.367 120.62 283.317 120.982 287.285C121.343 291.254 121.735 301.682 121.885 306.4M118.722 304.887C119.752 305.395 120.807 305.9 121.885 306.4M121.885 306.4C124.327 307.534 126.891 308.648 129.568 309.727M129.568 309.727C130.17 304.802 131.375 295.312 131.375 296.755C131.375 298.198 131.978 306.714 132.279 310.792M129.568 309.727C130.459 310.086 131.363 310.441 132.279 310.792M132.279 310.792C161.611 322.023 203.377 328.633 245.704 311.753M245.704 311.753C246.306 306.303 247.511 295.763 247.511 297.206C247.511 298.649 248.415 306.635 248.867 310.448M245.704 311.753C246.758 311.332 247.812 310.897 248.867 310.448M248.867 310.448C251.729 309.227 254.592 307.897 257.453 306.451M257.453 306.451C257.905 299.912 258.809 287.376 258.809 289.54C258.809 291.705 259.411 300.939 259.712 305.285M257.453 306.451C258.206 306.071 258.96 305.682 259.712 305.285M259.712 305.285C260.798 304.714 261.882 304.125 262.966 303.519M262.966 303.519C264.292 283.828 266.943 248.955 266.943 266.993C266.943 285.031 266.34 297.683 266.039 301.755M262.966 303.519C263.991 302.947 265.015 302.359 266.039 301.755M98.7178 114.574C99.0595 109.464 99.8332 99.6932 100.195 101.497C100.556 103.301 101.181 111.568 101.448 115.476M98.7178 114.574C99.625 114.881 100.535 115.182 101.448 115.476M108.888 117.731C109.756 113.222 111.402 105.555 111.04 110.967C111.028 111.145 111.018 111.314 111.011 111.473C110.813 115.674 117.748 109.033 117.367 113.222V113.222C117.005 117.19 117.517 119.444 117.818 120.076M108.888 117.731C111.843 118.57 114.822 119.351 117.818 120.076M111.04 116.378C112.396 116.679 115.197 117.28 115.559 117.28C115.919 117.28 115.412 113.997 115.11 112.338C115.108 112.325 115.107 112.313 115.107 112.301V112.301C115.107 112.08 114.818 112.014 114.726 112.214C114.276 113.192 113.751 114.475 113.751 115.025C113.751 115.747 111.341 116.228 110.136 116.378" stroke="#444A4A" stroke-width="4"/>
<path opacity="0.75" d="M393.457 118.625L393.184 118.461L390.148 117.805C389.93 117.75 389.802 117.659 389.766 117.531C389.729 117.385 389.711 117.24 389.711 117.094C389.711 116.729 389.793 116.51 389.957 116.437C390.121 116.365 390.376 116.328 390.723 116.328C390.796 116.328 390.896 116.337 391.023 116.355C391.133 116.355 391.187 116.355 391.187 116.355L399.855 118.625L400.102 118.625C400.211 118.625 400.302 118.607 400.375 118.57C400.448 118.516 400.457 118.397 400.402 118.215C400.384 117.723 400.366 117.194 400.348 116.629C400.311 116.046 400.257 115.444 400.184 114.824C400.092 114.204 399.965 113.603 399.801 113.02C399.618 112.436 399.382 111.917 399.09 111.461C398.78 111.005 398.397 110.641 397.941 110.367C397.467 110.076 396.893 109.93 396.219 109.93C395.362 109.93 394.505 110.167 393.648 110.641C392.792 111.096 392.008 111.68 391.297 112.391C390.586 113.102 390.012 113.895 389.574 114.77C389.137 115.645 388.918 116.501 388.918 117.34C388.918 117.759 389.009 118.133 389.191 118.461C389.355 118.771 389.538 119.053 389.738 119.309C389.921 119.564 390.103 119.81 390.285 120.047C390.449 120.284 390.531 120.512 390.531 120.73C390.531 121.095 390.349 121.277 389.984 121.277C389.966 121.277 389.948 121.277 389.93 121.277C389.911 121.259 389.893 121.25 389.875 121.25C389.492 121.104 389.155 120.895 388.863 120.621C388.572 120.348 388.316 120.047 388.098 119.719C387.879 119.372 387.724 119.008 387.633 118.625C387.523 118.224 387.469 117.832 387.469 117.449C387.469 117.158 387.469 116.884 387.469 116.629C387.469 116.355 387.514 116.073 387.605 115.781C388.007 114.888 388.48 114.004 389.027 113.129C389.556 112.236 390.176 111.434 390.887 110.723C391.579 110.012 392.382 109.437 393.293 109C394.186 108.562 395.171 108.344 396.246 108.344C397.103 108.344 397.832 108.517 398.434 108.863C399.017 109.21 399.509 109.674 399.91 110.258C400.311 110.841 400.621 111.507 400.84 112.254C401.059 112.983 401.223 113.74 401.332 114.523C401.423 115.307 401.478 116.082 401.496 116.848C401.496 117.595 401.487 118.27 401.469 118.871L401.605 118.98L409.344 121.004C409.544 121.059 409.708 121.177 409.836 121.359C409.945 121.542 410 121.733 410 121.934C410 122.061 409.954 122.161 409.863 122.234C409.772 122.307 409.672 122.362 409.562 122.398C409.453 122.435 409.335 122.462 409.207 122.48C409.079 122.48 408.988 122.471 408.934 122.453L393.457 118.625ZM406.746 108.535C406.363 108.025 405.99 107.651 405.625 107.414C405.26 107.159 404.896 106.958 404.531 106.812C404.167 106.667 403.784 106.548 403.383 106.457C402.964 106.366 402.508 106.22 402.016 106.02C401.888 106.092 401.779 106.138 401.687 106.156C401.578 106.156 401.451 106.156 401.305 106.156C401.159 106.156 400.986 106.138 400.785 106.102C400.585 106.047 400.402 105.974 400.238 105.883C400.056 105.792 399.901 105.682 399.773 105.555C399.646 105.427 399.582 105.272 399.582 105.09C399.655 105.108 399.737 105.008 399.828 104.789C399.919 104.552 400.02 104.27 400.129 103.941C400.238 103.595 400.357 103.23 400.484 102.848C400.612 102.465 400.749 102.128 400.895 101.836C401.077 101.508 401.277 101.28 401.496 101.152C401.697 101.007 401.988 100.934 402.371 100.934C402.717 100.934 403.109 100.979 403.547 101.07C403.984 101.143 404.431 101.225 404.887 101.316C405.324 101.389 405.771 101.471 406.227 101.562C406.664 101.635 407.065 101.672 407.43 101.672L408.141 101.672C408.305 101.69 408.396 101.654 408.414 101.562C408.414 101.453 408.414 101.353 408.414 101.262C408.414 101.043 408.378 100.842 408.305 100.66C408.232 100.478 408.15 100.296 408.059 100.113C407.967 99.9128 407.885 99.7214 407.812 99.5391C407.721 99.3568 407.658 99.1654 407.621 98.9648L406.145 96.5586C406.017 96.4857 405.917 96.3945 405.844 96.2852C405.753 96.1576 405.671 96.0391 405.598 95.9297C405.488 95.7474 405.333 95.5286 405.133 95.2734C405.023 95.1458 404.914 95.0091 404.805 94.8633L404.805 94.043C404.805 93.9883 404.859 93.9518 404.969 93.9336C405.078 93.9154 405.16 93.9062 405.215 93.9062C405.434 93.9062 405.707 94.0612 406.035 94.3711C406.363 94.681 406.701 95.082 407.047 95.5742C407.393 96.0664 407.74 96.6133 408.086 97.2148C408.414 97.8164 408.715 98.4089 408.988 98.9922C409.262 99.5573 409.48 100.086 409.645 100.578C409.809 101.052 409.891 101.417 409.891 101.672C409.891 102 409.809 102.264 409.645 102.465C409.48 102.665 409.28 102.829 409.043 102.957C408.806 103.085 408.551 103.176 408.277 103.23C407.986 103.267 407.703 103.285 407.43 103.285C407.229 103.285 406.947 103.221 406.582 103.094C406.217 102.966 405.844 102.82 405.461 102.656C405.078 102.492 404.704 102.346 404.34 102.219C403.975 102.091 403.684 102.027 403.465 102.027C403.447 102.027 403.374 102.164 403.246 102.437C403.118 102.693 402.982 102.975 402.836 103.285C402.672 103.595 402.535 103.887 402.426 104.16C402.298 104.415 402.225 104.543 402.207 104.543C402.626 104.944 403.073 105.227 403.547 105.391C404.021 105.536 404.513 105.691 405.023 105.855C405.534 106.001 406.044 106.229 406.555 106.539C407.065 106.831 407.566 107.332 408.059 108.043C408.059 108.061 408.049 108.098 408.031 108.152C408.013 108.225 407.967 108.289 407.895 108.344C407.803 108.417 407.676 108.471 407.512 108.508C407.329 108.544 407.074 108.553 406.746 108.535ZM407.867 95.082C407.849 95.082 407.785 95.0729 407.676 95.0547C407.566 95.0365 407.457 95.0182 407.348 95C407.22 94.9818 407.111 94.9635 407.02 94.9453C406.91 94.9271 406.837 94.918 406.801 94.918L406.691 94.918L406.527 94.918L404.805 94.5352C404.148 94.2253 403.52 93.9062 402.918 93.5781C402.316 93.2318 401.788 92.8398 401.332 92.4023C400.876 91.9648 400.512 91.4635 400.238 90.8984C399.965 90.3151 399.828 89.6133 399.828 88.793C399.828 88.6289 399.883 88.4284 399.992 88.1914C400.083 87.9362 400.202 87.6901 400.348 87.4531C400.493 87.1979 400.648 86.9701 400.812 86.7695C400.958 86.5508 401.095 86.3867 401.223 86.2773C401.132 85.7122 401.086 85.3021 401.086 85.0469C401.068 84.7917 401.059 84.5729 401.059 84.3906C401.04 84.2083 401.004 84.0169 400.949 83.8164C400.895 83.5977 400.776 83.2695 400.594 82.832C400.503 82.5221 400.457 82.2214 400.457 81.9297C400.457 81.8021 400.512 81.6836 400.621 81.5742C400.73 81.4466 400.858 81.3828 401.004 81.3828C401.186 81.3828 401.35 81.4466 401.496 81.5742C401.642 81.7018 401.733 81.8568 401.77 82.0391L402.535 85.457L402.672 85.7578C403.656 85.776 404.595 85.9948 405.488 86.4141C406.382 86.8333 407.165 87.3893 407.84 88.082C408.514 88.7747 409.052 89.5768 409.453 90.4883C409.836 91.3997 410.027 92.3477 410.027 93.332C410.027 93.4049 410.018 93.5234 410 93.6875C410 93.8516 410 93.9609 410 94.0156C409.836 94.4167 409.535 94.6992 409.098 94.8633C408.66 95.0091 408.25 95.082 407.867 95.082ZM408.414 93.332C408.505 93.3138 408.551 93.2409 408.551 93.1133C408.551 92.9857 408.551 92.8945 408.551 92.8398C408.551 92.1836 408.387 91.5091 408.059 90.8164C407.712 90.1237 407.275 89.5039 406.746 88.957C406.199 88.3919 405.589 87.9362 404.914 87.5898C404.221 87.2253 403.529 87.043 402.836 87.043C402.836 87.6263 402.79 88.2096 402.699 88.793C402.59 89.3763 402.535 89.9414 402.535 90.4883L402.535 90.5156L404.941 92.7852C405.069 92.9128 405.242 93.013 405.461 93.0859C405.68 93.1589 405.917 93.2135 406.172 93.25C406.427 93.2865 406.682 93.3138 406.937 93.332C407.193 93.3503 407.421 93.3594 407.621 93.3594C407.676 93.3594 407.803 93.3594 408.004 93.3594C408.204 93.3594 408.341 93.3503 408.414 93.332ZM409.344 81.7656C408.888 81.7109 408.46 81.638 408.059 81.5469C407.639 81.4557 407.229 81.3555 406.828 81.2461C406.427 81.1367 406.017 81.0182 405.598 80.8906C405.16 80.7448 404.668 80.5898 404.121 80.4258L403.984 80.4258C404.404 81.1549 404.613 81.6745 404.613 81.9844C404.613 82.276 404.504 82.4219 404.285 82.4219C404.066 82.4401 403.775 82.349 403.41 82.1484C403.046 81.9297 402.708 81.6745 402.398 81.3828C402.089 81.0729 401.842 80.763 401.66 80.4531C401.478 80.125 401.451 79.8698 401.578 79.6875C401.578 79.4687 401.615 79.2956 401.687 79.168C401.76 79.0221 401.87 78.8672 402.016 78.7031C401.687 78.2839 401.423 77.8919 401.223 77.5273C401.022 77.1628 400.922 76.7253 400.922 76.2148C400.922 75.4128 401.104 74.8112 401.469 74.4102C401.833 73.9909 402.417 73.6901 403.219 73.5078C402.909 73.1979 402.626 72.9154 402.371 72.6602C402.098 72.4049 401.87 72.1315 401.687 71.8398C401.487 71.5299 401.341 71.2018 401.25 70.8555C401.141 70.5091 401.086 70.1172 401.086 69.6797C401.086 69.3151 401.223 68.9596 401.496 68.6133C401.77 68.2669 402.07 68.0208 402.398 67.875C402.471 67.875 402.635 67.875 402.891 67.875C403.146 67.875 403.319 67.875 403.41 67.875C404.03 67.875 404.632 67.9479 405.215 68.0937C405.78 68.2396 406.363 68.3125 406.965 68.3125C407.22 68.3125 407.484 68.2852 407.758 68.2305C408.013 68.1576 408.141 67.957 408.141 67.6289C408.141 67.1914 408.049 66.7995 407.867 66.4531C407.685 66.0885 407.466 65.7604 407.211 65.4687C406.937 65.1589 406.646 64.8854 406.336 64.6484C406.026 64.3932 405.743 64.1654 405.488 63.9648C405.215 63.7461 404.987 63.5456 404.805 63.3633C404.622 63.181 404.531 62.9987 404.531 62.8164C404.531 62.6888 404.586 62.5521 404.695 62.4062C404.786 62.2422 404.905 62.1602 405.051 62.1602C405.069 62.1602 405.096 62.1693 405.133 62.1875C405.169 62.1875 405.197 62.1875 405.215 62.1875C405.78 62.3698 406.318 62.6341 406.828 62.9805C407.339 63.3268 407.794 63.7279 408.195 64.1836C408.578 64.6393 408.888 65.1497 409.125 65.7148C409.344 66.2617 409.453 66.8451 409.453 67.4648C409.453 68.0482 409.38 68.5404 409.234 68.9414C409.07 69.3424 408.706 69.6523 408.141 69.8711C408.086 69.8711 407.967 69.8802 407.785 69.8984C407.585 69.8984 407.466 69.8984 407.43 69.8984C406.737 69.8984 406.072 69.8346 405.434 69.707C404.796 69.5612 404.148 69.4883 403.492 69.4883C403.437 69.4883 403.319 69.4974 403.137 69.5156C402.954 69.5156 402.836 69.5156 402.781 69.5156C402.69 69.5885 402.645 69.707 402.645 69.8711C402.645 70.0169 402.645 70.1536 402.645 70.2812C402.645 70.6641 402.781 71.0286 403.055 71.375C403.328 71.7214 403.674 72.0404 404.094 72.332C404.513 72.6237 404.987 72.888 405.516 73.125C406.026 73.3437 406.546 73.5352 407.074 73.6992C407.585 73.8633 408.068 74 408.523 74.1094C408.961 74.2005 409.326 74.2552 409.617 74.2734L409.891 74.5742L409.891 75.5039C409.891 75.668 409.809 75.7591 409.645 75.7773C409.462 75.7773 409.326 75.7773 409.234 75.7773C408.797 75.7773 408.359 75.75 407.922 75.6953C407.466 75.6224 407.02 75.5495 406.582 75.4766C406.126 75.3854 405.671 75.3034 405.215 75.2305C404.759 75.1576 404.312 75.112 403.875 75.0937C403.729 75.112 403.574 75.1302 403.41 75.1484C403.228 75.1667 403.064 75.2031 402.918 75.2578C402.772 75.3125 402.654 75.3945 402.562 75.5039C402.453 75.6133 402.398 75.7682 402.398 75.9687C402.398 76.2604 402.453 76.543 402.562 76.8164C402.672 77.0898 402.818 77.3451 403 77.582C403.164 77.8008 403.374 78.0013 403.629 78.1836C403.866 78.3477 404.13 78.4661 404.422 78.5391L409.727 80.1797L410 80.4258C410 80.4258 410 80.4805 410 80.5898C410.018 80.6992 410.027 80.7812 410.027 80.8359C410.027 81.0365 410.009 81.2461 409.973 81.4648C409.918 81.6654 409.745 81.7656 409.453 81.7656L409.344 81.7656ZM407.867 63.0625C407.849 63.0625 407.785 63.0534 407.676 63.0352C407.566 63.0169 407.457 62.9987 407.348 62.9805C407.22 62.9622 407.111 62.944 407.02 62.9258C406.91 62.9076 406.837 62.8984 406.801 62.8984L406.691 62.8984L406.527 62.8984L404.805 62.5156C404.148 62.2057 403.52 61.8867 402.918 61.5586C402.316 61.2122 401.788 60.8203 401.332 60.3828C400.876 59.9453 400.512 59.444 400.238 58.8789C399.965 58.2956 399.828 57.5937 399.828 56.7734C399.828 56.6094 399.883 56.4089 399.992 56.1719C400.083 55.9167 400.202 55.6706 400.348 55.4336C400.493 55.1784 400.648 54.9505 400.812 54.75C400.958 54.5312 401.095 54.3672 401.223 54.2578C401.132 53.6927 401.086 53.2826 401.086 53.0273C401.068 52.7721 401.059 52.5534 401.059 52.3711C401.04 52.1888 401.004 51.9974 400.949 51.7969C400.895 51.5781 400.776 51.25 400.594 50.8125C400.503 50.5026 400.457 50.2018 400.457 49.9102C400.457 49.7826 400.512 49.6641 400.621 49.5547C400.73 49.4271 400.858 49.3633 401.004 49.3633C401.186 49.3633 401.35 49.4271 401.496 49.5547C401.642 49.6823 401.733 49.8372 401.77 50.0195L402.535 53.4375L402.672 53.7383C403.656 53.7565 404.595 53.9753 405.488 54.3945C406.382 54.8138 407.165 55.3698 407.84 56.0625C408.514 56.7552 409.052 57.5573 409.453 58.4687C409.836 59.3802 410.027 60.3281 410.027 61.3125C410.027 61.3854 410.018 61.5039 410 61.668C410 61.832 410 61.9414 410 61.9961C409.836 62.3971 409.535 62.6797 409.098 62.8437C408.66 62.9896 408.25 63.0625 407.867 63.0625ZM408.414 61.3125C408.505 61.2943 408.551 61.2214 408.551 61.0937C408.551 60.9661 408.551 60.875 408.551 60.8203C408.551 60.1641 408.387 59.4896 408.059 58.7969C407.712 58.1042 407.275 57.4844 406.746 56.9375C406.199 56.3724 405.589 55.9167 404.914 55.5703C404.221 55.2057 403.529 55.0234 402.836 55.0234C402.836 55.6068 402.79 56.1901 402.699 56.7734C402.59 57.3568 402.535 57.9219 402.535 58.4687L402.535 58.4961L404.941 60.7656C405.069 60.8932 405.242 60.9935 405.461 61.0664C405.68 61.1393 405.917 61.194 406.172 61.2305C406.427 61.2669 406.682 61.2943 406.937 61.3125C407.193 61.3307 407.421 61.3398 407.621 61.3398C407.676 61.3398 407.803 61.3398 408.004 61.3398C408.204 61.3398 408.341 61.3307 408.414 61.3125ZM402.672 49.418C402.599 49.3815 402.49 49.3086 402.344 49.1992C402.18 49.0898 402.043 49.0352 401.934 49.0352L401.852 49.0352C401.833 49.0352 401.815 49.0534 401.797 49.0898C401.76 49.1263 401.742 49.1536 401.742 49.1719L401.742 49.6641C401.888 50.138 401.988 50.6667 402.043 51.25C402.098 51.8516 402.116 52.4258 402.098 52.9727C402.079 53.5378 402.034 54.0208 401.961 54.4219C401.87 54.8229 401.77 55.0599 401.66 55.1328C401.551 55.2057 401.423 55.069 401.277 54.7227C401.113 54.3763 400.949 53.7201 400.785 52.7539C400.785 52.6992 400.767 52.5716 400.73 52.3711C400.676 52.1888 400.63 51.9792 400.594 51.7422C400.557 51.5234 400.521 51.3138 400.484 51.1133C400.43 50.9128 400.402 50.7852 400.402 50.7305C400.384 50.6576 400.375 50.5026 400.375 50.2656C400.357 50.0286 400.339 49.7917 400.32 49.5547C400.302 49.2995 400.293 49.0625 400.293 48.8437C400.293 48.6068 400.293 48.4427 400.293 48.3516L400.129 48.2148L396.547 46.082C396.419 46.0091 396.319 45.8815 396.246 45.6992C396.173 45.4987 396.137 45.3437 396.137 45.2344C396.137 44.9974 396.237 44.8333 396.437 44.7422C396.62 44.651 396.802 44.6055 396.984 44.6055C397.003 44.6055 397.021 44.6146 397.039 44.6328C397.057 44.6328 397.076 44.6328 397.094 44.6328L397.203 44.6328L400.129 45.8359L400.293 45.8359C400.184 45.7995 400.129 45.7357 400.129 45.6445C400.129 45.5352 400.129 45.4531 400.129 45.3984C400.129 45.125 400.22 44.8607 400.402 44.6055C400.585 44.3503 400.831 44.2227 401.141 44.2227C401.286 44.2227 401.405 44.2682 401.496 44.3594C401.587 44.4505 401.66 44.5599 401.715 44.6875C401.77 44.8151 401.815 44.9518 401.852 45.0977C401.87 45.2435 401.879 45.3711 401.879 45.4805C401.879 45.6992 401.852 45.9089 401.797 46.1094C401.742 46.2917 401.715 46.4922 401.715 46.7109C401.715 46.9115 401.824 47.0937 402.043 47.2578C402.243 47.4219 402.517 47.5768 402.863 47.7227C403.191 47.8503 403.565 47.9596 403.984 48.0508C404.404 48.1419 404.814 48.224 405.215 48.2969C405.616 48.3698 405.99 48.4245 406.336 48.4609C406.682 48.4792 406.947 48.4883 407.129 48.4883C407.202 48.4883 407.348 48.4883 407.566 48.4883C407.785 48.4701 407.931 48.4609 408.004 48.4609C408.113 48.4427 408.214 48.3971 408.305 48.3242C408.378 48.2513 408.46 48.1784 408.551 48.1055L408.551 47.4766C408.551 46.7474 408.387 46.0273 408.059 45.3164C407.73 44.5872 407.357 43.9036 406.937 43.2656C406.919 43.2292 406.837 43.1471 406.691 43.0195C406.527 42.8737 406.372 42.7187 406.227 42.5547C406.062 42.3906 405.917 42.2448 405.789 42.1172C405.661 41.9714 405.598 41.8711 405.598 41.8164C405.598 41.6888 405.661 41.5703 405.789 41.4609C405.917 41.3516 406.053 41.2969 406.199 41.2969C406.546 41.2969 406.883 41.4245 407.211 41.6797C407.539 41.9167 407.849 42.2266 408.141 42.6094C408.414 42.9922 408.669 43.4297 408.906 43.9219C409.143 44.4141 409.344 44.9062 409.508 45.3984C409.672 45.8724 409.799 46.3281 409.891 46.7656C409.982 47.1849 410.027 47.5312 410.027 47.8047C410.027 48.0599 410 48.3242 409.945 48.5977C409.872 48.8711 409.763 49.1172 409.617 49.3359C409.471 49.5547 409.289 49.737 409.07 49.8828C408.852 50.0286 408.578 50.1016 408.25 50.1016L405.215 50.1016L402.672 49.418ZM404.258 41.9531C404.167 41.9349 404.003 41.8802 403.766 41.7891C403.529 41.6979 403.273 41.6068 403 41.5156C402.727 41.4062 402.471 41.306 402.234 41.2148C401.997 41.1237 401.833 41.0599 401.742 41.0234C401.451 40.9141 401.259 40.8138 401.168 40.7227C401.077 40.6133 401.031 40.4219 401.031 40.1484C401.031 39.8568 401.132 39.6654 401.332 39.5742C401.533 39.4831 401.77 39.4375 402.043 39.4375C402.517 39.4375 402.954 39.5104 403.355 39.6562C403.738 39.7839 404.13 39.9297 404.531 40.0937C404.914 40.2578 405.333 40.4128 405.789 40.5586C406.227 40.6862 406.737 40.75 407.32 40.75C407.393 40.75 407.503 40.75 407.648 40.75C407.776 40.75 407.913 40.7409 408.059 40.7227C408.186 40.7044 408.305 40.668 408.414 40.6133C408.505 40.5586 408.551 40.4857 408.551 40.3945C408.551 39.9206 408.46 39.4466 408.277 38.9727C408.077 38.4805 407.849 38.0065 407.594 37.5508C407.32 37.0768 407.029 36.6302 406.719 36.2109C406.391 35.7734 406.108 35.3815 405.871 35.0352C405.78 34.9076 405.689 34.8164 405.598 34.7617C405.507 34.6888 405.424 34.625 405.352 34.5703C405.26 34.5156 405.187 34.4518 405.133 34.3789C405.06 34.2878 405.023 34.151 405.023 33.9687C405.023 33.7318 405.078 33.5404 405.187 33.3945C405.279 33.2305 405.452 33.1484 405.707 33.1484C405.816 33.1484 405.917 33.1576 406.008 33.1758C406.099 33.1758 406.181 33.2214 406.254 33.3125C406.309 33.3307 406.382 33.4036 406.473 33.5312C406.564 33.6406 406.664 33.7591 406.773 33.8867C406.865 34.0143 406.956 34.1328 407.047 34.2422C407.12 34.3516 407.165 34.4336 407.184 34.4883C407.184 34.5065 407.211 34.5612 407.266 34.6523C407.302 34.7253 407.32 34.7708 407.32 34.7891C407.339 34.8073 407.366 34.8346 407.402 34.8711C407.421 34.8893 407.439 34.8984 407.457 34.8984C407.749 35.2812 408.049 35.7005 408.359 36.1562C408.651 36.5937 408.924 37.0586 409.18 37.5508C409.417 38.043 409.617 38.5534 409.781 39.082C409.945 39.5924 410.027 40.1029 410.027 40.6133C410.027 41.0508 409.918 41.388 409.699 41.625C409.462 41.8437 409.171 42.0078 408.824 42.1172C408.478 42.2266 408.113 42.2904 407.73 42.3086C407.348 42.3268 407.001 42.3359 406.691 42.3359L404.258 41.9531ZM397.066 40.6406C396.738 40.6406 396.52 40.5768 396.41 40.4492C396.301 40.3216 396.246 40.0937 396.246 39.7656C396.246 39.6016 396.283 39.4375 396.355 39.2734C396.41 39.1094 396.556 39.0273 396.793 39.0273C397.03 39.0273 397.249 39.1458 397.449 39.3828C397.65 39.6016 397.75 39.8203 397.75 40.0391C397.75 40.2578 397.686 40.4128 397.559 40.5039C397.413 40.5951 397.249 40.6406 397.066 40.6406ZM407.867 32.3555C407.849 32.3555 407.785 32.3464 407.676 32.3281C407.566 32.3099 407.457 32.2917 407.348 32.2734C407.22 32.2552 407.111 32.237 407.02 32.2187C406.91 32.2005 406.837 32.1914 406.801 32.1914L406.691 32.1914L406.527 32.1914L404.805 31.8086C404.148 31.4987 403.52 31.1797 402.918 30.8516C402.316 30.5052 401.788 30.1133 401.332 29.6758C400.876 29.2383 400.512 28.737 400.238 28.1719C399.965 27.5885 399.828 26.8867 399.828 26.0664C399.828 25.9023 399.883 25.7018 399.992 25.4648C400.083 25.2096 400.202 24.9635 400.348 24.7266C400.493 24.4714 400.648 24.2435 400.812 24.043C400.958 23.8242 401.095 23.6602 401.223 23.5508C401.132 22.9857 401.086 22.5755 401.086 22.3203C401.068 22.0651 401.059 21.8464 401.059 21.6641C401.04 21.4818 401.004 21.2904 400.949 21.0898C400.895 20.8711 400.776 20.543 400.594 20.1055C400.503 19.7956 400.457 19.4948 400.457 19.2031C400.457 19.0755 400.512 18.957 400.621 18.8477C400.73 18.7201 400.858 18.6562 401.004 18.6562C401.186 18.6562 401.35 18.7201 401.496 18.8477C401.642 18.9753 401.733 19.1302 401.77 19.3125L402.535 22.7305L402.672 23.0312C403.656 23.0495 404.595 23.2682 405.488 23.6875C406.382 24.1068 407.165 24.6628 407.84 25.3555C408.514 26.0482 409.052 26.8503 409.453 27.7617C409.836 28.6732 410.027 29.6211 410.027 30.6055C410.027 30.6784 410.018 30.7969 410 30.9609C410 31.125 410 31.2344 410 31.2891C409.836 31.6901 409.535 31.9727 409.098 32.1367C408.66 32.2826 408.25 32.3555 407.867 32.3555ZM408.414 30.6055C408.505 30.5872 408.551 30.5143 408.551 30.3867C408.551 30.2591 408.551 30.168 408.551 30.1133C408.551 29.457 408.387 28.7826 408.059 28.0898C407.712 27.3971 407.275 26.7773 406.746 26.2305C406.199 25.6654 405.589 25.2096 404.914 24.8633C404.221 24.4987 403.529 24.3164 402.836 24.3164C402.836 24.8997 402.79 25.4831 402.699 26.0664C402.59 26.6497 402.535 27.2148 402.535 27.7617L402.535 27.7891L404.941 30.0586C405.069 30.1862 405.242 30.2865 405.461 30.3594C405.68 30.4323 405.917 30.487 406.172 30.5234C406.427 30.5599 406.682 30.5872 406.937 30.6055C407.193 30.6237 407.421 30.6328 407.621 30.6328C407.676 30.6328 407.803 30.6328 408.004 30.6328C408.204 30.6328 408.341 30.6237 408.414 30.6055ZM409.453 19.3125L403.984 18.3828L403.219 18.3828L399.582 17.8359C399.509 17.7812 399.473 17.681 399.473 17.5352C399.454 17.3893 399.445 17.2891 399.445 17.2344C399.445 17.0885 399.5 16.9245 399.609 16.7422C399.701 16.5417 399.828 16.4414 399.992 16.4414L401.852 16.4414C401.797 16.3685 401.687 16.2409 401.523 16.0586C401.359 15.8763 401.186 15.6849 401.004 15.4844C400.822 15.2656 400.648 15.0651 400.484 14.8828C400.32 14.7005 400.202 14.582 400.129 14.5273C399.947 14.3268 399.792 14.0898 399.664 13.8164C399.536 13.5247 399.473 13.2513 399.473 12.9961C399.473 12.4674 399.637 12.0573 399.965 11.7656C400.293 11.4557 400.712 11.3008 401.223 11.3008C401.259 11.3008 401.286 11.3099 401.305 11.3281C401.305 11.3281 401.323 11.3281 401.359 11.3281L401.469 11.3281L406.145 12.3672L408.359 12.3672C408.359 11.8021 408.25 11.2187 408.031 10.6172C407.794 9.99739 407.503 9.40495 407.156 8.83984C406.81 8.27474 406.418 7.74609 405.98 7.2539C405.525 6.76172 405.087 6.33333 404.668 5.96875L404.668 5.85937C404.668 5.73177 404.714 5.63151 404.805 5.55859C404.878 5.46745 404.978 5.42187 405.105 5.42187C405.507 5.42187 405.908 5.55859 406.309 5.83203C406.691 6.08724 407.056 6.42448 407.402 6.84375C407.749 7.24479 408.077 7.71875 408.387 8.26562C408.697 8.79427 408.961 9.32292 409.18 9.85156C409.398 10.362 409.572 10.8633 409.699 11.3555C409.827 11.8477 409.891 12.2669 409.891 12.6133C409.891 12.9596 409.827 13.2331 409.699 13.4336C409.572 13.6341 409.408 13.7891 409.207 13.8984C408.988 13.9896 408.751 14.0534 408.496 14.0898C408.241 14.1081 407.967 14.1172 407.676 14.1172L407.32 14.1172L402.016 13.0508L401.113 13.0508C401.113 13.4883 401.305 13.9258 401.687 14.3633C402.07 14.7826 402.535 15.1654 403.082 15.5117C403.629 15.8398 404.185 16.1315 404.75 16.3867C405.315 16.6237 405.78 16.7969 406.145 16.9062C406.272 16.9427 406.5 16.9974 406.828 17.0703C407.156 17.1432 407.503 17.2161 407.867 17.2891C408.232 17.3437 408.578 17.3984 408.906 17.4531C409.234 17.5078 409.471 17.5443 409.617 17.5625C409.727 17.5443 409.809 17.5807 409.863 17.6719C409.918 17.7448 409.964 17.8359 410 17.9453C410.018 18.0547 410.027 18.1732 410.027 18.3008C410.027 18.4102 410.027 18.5013 410.027 18.5742C410.027 18.7383 410 18.9023 409.945 19.0664C409.891 19.2305 409.754 19.3125 409.535 19.3125L409.453 19.3125Z" fill="black"/>
</svg>
