<svg width="348" height="377" viewBox="0 0 348 377" fill="none" xmlns="http://www.w3.org/2000/svg">
<path d="M54.4543 27.0693V27.0693C53.7516 26.9912 48.7932 23.6498 48.7932 22.9427V9.5313C47.8874 0.932032 25.3941 1.42234 14.2606 2.7424C2.03267 5.00537 1.24012 31.218 2.37234 44.0415V44.0415C2.37234 53.4407 16.7684 50.8304 26.1676 50.8304H54.4543M54.4543 27.0693V50.8304M54.4543 27.0693C55.1745 27.1492 58.2147 27.2068 62.9459 27.2464M175.601 27.0693V27.0693C175.601 16.1335 184.467 7.26833 195.402 7.26833H206.519C215.347 7.26833 223.814 13.3794 222.306 22.0776C222.208 22.6421 222.09 23.2006 221.95 23.7492C221.672 24.8373 221.456 25.9462 221.456 27.0693V27.0693M175.601 27.0693H182.961M175.601 27.0693C146.617 27.2106 95.3441 27.3942 69.7392 27.287M221.456 27.0693H229.949C231.199 27.0693 232.212 26.0561 232.212 24.8063V24.8063V44.6072C232.212 46.6816 231.193 50.8304 227.117 50.8304H221.456M221.456 27.0693H214.663M54.4543 50.8304H62.9459M62.9459 27.2464V50.8304M62.9459 27.2464C63.3132 27.2495 63.6907 27.2525 64.0781 27.2553M62.9459 50.8304L177.866 50.8304M77.6647 44.0415C77.6647 44.0415 121.138 44.0415 148.994 44.0415M10.2979 44.6072C16.3363 45.3616 35.2066 46.3045 35.2066 46.3045M13.6945 10.097C13.6945 10.097 26.8056 10.097 35.2066 10.097M177.866 50.8304V90.998M177.866 50.8304H183.527M177.866 90.998H120.123M177.866 90.998H183.527M98.0446 111.365V96.6591C98.0446 93.5326 100.579 90.998 103.706 90.998V90.998M98.0446 111.365H85.0241C83.5145 111.176 80.6085 112.157 81.0614 117.588C81.7088 128.264 83.828 147.764 87.5617 151.953C88.5585 153.071 90.3193 152.664 91.8174 152.664V152.664M98.0446 111.365H104.838M103.706 90.998L104.838 111.365M103.706 90.998H120.123M104.838 111.365H111.631M120.123 90.998V111.365M120.123 111.365H111.631M120.123 111.365H129.181M300.145 111.365H311.467C317.808 110.912 319.016 114.948 318.827 117.022C318.511 135.633 313.961 145.615 311.232 149.955C310.073 151.799 307.984 152.664 305.806 152.664V152.664M300.145 111.365V97.2252C300.145 93.786 297.357 90.998 293.918 90.998V90.998M300.145 111.365H293.918M293.918 90.998V111.365M293.918 90.998H279.199M293.918 111.365H279.199M279.199 90.998V111.365M279.199 90.998H221.456M279.199 111.365H269.009M221.456 50.8304V90.998M221.456 50.8304H214.663M221.456 90.998H215.229M100.875 158.887H299.013M305.806 152.664H302.41H300.145M305.806 152.664L345.743 352.217C345.914 353.072 346 353.941 346 354.812V354.812C346 358.32 344.606 361.684 342.125 364.164L338.637 367.649C333.927 372.356 327.541 375 320.882 375H89.4158C76.0917 375 63.3128 369.709 53.8882 360.291V360.291V360.291C52.8269 359.23 52.3647 357.71 52.656 356.238L92.9496 152.664M305.806 152.664L309.769 122.114M92.9496 152.664H91.8174M92.9496 152.664H98.0446M99.1768 166.807H118.991M95.2141 177.556H113.896M280.331 167.373H299.013M285.426 178.122C292.059 178.122 295.777 178.122 302.41 178.122M60.6815 349.542C77.2624 349.542 86.5587 349.542 103.14 349.542M60.6815 359.159L165.411 362.554M69.1731 365.948C91.281 366.611 103.676 366.983 125.784 367.645M294.484 348.976L338.641 349.542M232.212 362.554C232.212 362.554 296.043 360.485 336.942 359.159M272.972 367.645C295.08 366.983 307.475 366.611 329.583 365.948M88.9869 122.68L91.8174 152.664M96.3463 134.56L98.0446 152.664M98.0446 152.664H300.145M111.065 100.05L111.631 111.365M130.313 99.4841L129.181 111.365M129.181 111.365H269.009M268.443 98.9184L269.009 111.365M287.691 100.616V111.93M301.844 133.994L300.145 152.664M186 16V16C183.743 19.2244 182.663 23.1447 182.961 27.0693V27.0693M182.961 27.0693H214.663M213.5 14.5V14.5C214.779 16.0983 215.357 18.1458 215.103 20.1768L215 21L214.663 27.0693M214.663 68.9341V50.8304M214.663 50.8304H183.527M184.093 68.9341L183.527 50.8304M184.093 80.2489L183.527 90.998M183.527 90.998H215.229M214.663 79.6832L215.229 90.998M65.7765 28.2007H68.607H69.0701C69.1366 28.2007 69.2009 28.1771 69.2517 28.1342V28.1342C69.467 27.9516 69.3088 27.6011 69.0294 27.642L67.4 27.8804C66.926 27.9497 66.8926 28.621 67.3573 28.7371V28.7371C67.4342 28.7563 67.5044 28.7961 67.5604 28.8521L67.7015 28.9931C67.9188 29.2102 68.0409 29.5048 68.0409 29.812V29.9273C68.0409 31.4147 66.0571 31.9209 65.3445 30.6152L64.7429 29.513C64.6774 29.3929 64.6261 29.2655 64.5901 29.1335L64.0781 27.2553M64.0781 27.2553C64.7993 27.2606 65.5547 27.2656 66.3426 27.2702M66.3426 27.2702C67.4162 27.2765 68.55 27.2821 69.7392 27.287M66.3426 27.2702L69.7392 27.287M48.7932 37.2526V44.6072M27 15.5L25.5828 18.0174L28.4133 15.1887L25.5828 14.623M22 13.4915C25.1519 13.6285 27.0147 13.5806 29.9851 13.5082C30.4159 13.4977 30.8227 13.7088 31.0619 14.0673V14.0673C31.4664 14.6736 31.2711 15.4955 30.6817 15.9243C29.3702 16.8785 27.8472 18.34 27.8472 19.7146C27.8472 20.0423 27.7153 20.2487 27.4914 20.3601C24.2586 21.9695 25.6112 13.4877 22 13.4915V13.4915Z" stroke="#444A4A" stroke-width="3"/>
</svg>
